<svg width="184" height="65" viewBox="0 0 184 65" fill="none" xmlns="http://www.w3.org/2000/svg">
<path d="M104.888 36.158C101.463 27.2993 92.7369 21 82.515 21C72.293 21 63.5665 27.292 60.1417 36.1507C53.7334 37.8007 49 43.5207 49 50.3333C49 58.4367 55.6925 65 63.9479 65H101.052C109.307 65 116 58.4367 116 50.3333C116 43.5353 111.282 37.8153 104.888 36.158ZM107.603 56.7647C106.744 57.6111 105.724 58.2823 104.599 58.7392C103.475 59.1961 102.269 59.4298 101.052 59.4267H63.9479C61.4728 59.4267 59.1472 58.4807 57.3974 56.7647C56.5342 55.9217 55.8498 54.9193 55.3839 53.8154C54.918 52.7115 54.6798 51.528 54.683 50.3333C54.683 48.28 55.3635 46.3513 56.6422 44.738C57.8944 43.1751 59.6281 42.051 61.5849 41.5333L64.419 40.8073L65.4584 38.1233C66.1014 36.4513 66.9988 34.8893 68.1279 33.474C69.2426 32.0712 70.563 30.838 72.0462 29.8147C75.1195 27.6953 78.7387 26.5733 82.515 26.5733C86.2912 26.5733 89.9104 27.6953 92.9837 29.8147C94.4718 30.8413 95.7878 32.0733 96.902 33.474C98.0311 34.8893 98.9285 36.4587 99.5715 38.1233L100.603 40.8L103.43 41.5333C107.49 42.5967 110.317 46.212 110.317 50.3333C110.317 52.7607 109.352 55.0487 107.603 56.7647Z" fill="black"/>
<path d="M68.4004 18.603C64.2089 7.731 53.5288 0 41.0183 0C28.5078 0 17.8277 7.722 13.6362 18.594C5.79308 20.619 0 27.639 0 36C0 45.945 8.19085 54 18.2944 54H63.7056C73.8092 54 82 45.945 82 36C82 27.657 76.2252 20.637 68.4004 18.603Z" fill="black"/>
<path d="M174.381 37.091C171.416 29.4403 163.862 24 155.013 24C146.164 24 138.61 29.434 135.645 37.0847C130.098 38.5097 126 43.4497 126 49.3333C126 56.3317 131.794 62 138.94 62H171.06C178.206 62 184 56.3317 184 49.3333C184 43.4623 179.915 38.5223 174.381 37.091Z" fill="black"/>
<path d="M149.4 18.603C145.209 7.731 134.529 0 122.018 0C109.508 0 98.8277 7.722 94.6362 18.594C86.7931 20.619 81 27.639 81 36C81 45.945 89.1908 54 99.2944 54H144.706C154.809 54 163 45.945 163 36C163 27.657 157.225 20.637 149.4 18.603ZM152.723 43.893C151.672 44.9319 150.423 45.7555 149.047 46.3163C147.671 46.8771 146.195 47.1638 144.706 47.16H99.2944C96.2652 47.16 93.419 45.999 91.2775 43.893C90.2209 42.8584 89.3834 41.6282 88.8132 40.2735C88.2429 38.9187 87.9514 37.4662 87.9554 36C87.9554 33.48 88.7882 31.113 90.3531 29.133C91.8857 27.2149 94.0076 25.8353 96.4025 25.2L99.871 24.309L101.143 21.015C101.93 18.963 103.028 17.046 104.41 15.309C105.775 13.5874 107.391 12.0739 109.206 10.818C112.967 8.217 117.397 6.84 122.018 6.84C126.64 6.84 131.069 8.217 134.831 10.818C136.652 12.078 138.263 13.59 139.626 15.309C141.008 17.046 142.106 18.972 142.894 21.015L144.156 24.3L147.616 25.2C152.585 26.505 156.045 30.942 156.045 36C156.045 38.979 154.864 41.787 152.723 43.893Z" fill="black"/>
</svg>
