<svg width="213" height="76" viewBox="0 0 213 76" fill="none" xmlns="http://www.w3.org/2000/svg">
<path d="M105.22 14.8135C101.897 6.15617 93.4314 0 83.5145 0C73.5977 0 65.1317 6.149 61.8092 14.8063C55.5921 16.4188 51 22.0088 51 28.6667C51 36.5858 57.4927 43 65.5017 43H101.498C109.507 43 116 36.5858 116 28.6667C116 22.0232 111.422 16.4332 105.22 14.8135ZM107.853 34.9518C107.021 35.7791 106.03 36.4349 104.94 36.8815C103.849 37.328 102.679 37.5564 101.498 37.5533H65.5017C63.1004 37.5533 60.8443 36.6288 59.1468 34.9518C58.3093 34.128 57.6454 33.1484 57.1934 32.0696C56.7414 30.9908 56.5103 29.8342 56.5134 28.6667C56.5134 26.66 57.1735 24.7752 58.4141 23.1985C59.6289 21.6711 61.3109 20.5726 63.2093 20.0667L65.9587 19.3572L66.9671 16.7342C67.591 15.1002 68.4615 13.5737 69.5569 12.1905C70.6384 10.8196 71.9194 9.61444 73.3583 8.61433C76.3398 6.54317 79.851 5.44667 83.5145 5.44667C87.178 5.44667 90.6892 6.54317 93.6708 8.61433C95.1144 9.61767 96.3912 10.8217 97.4721 12.1905C98.5675 13.5737 99.4381 15.1073 100.062 16.7342L101.063 19.35L103.805 20.0667C107.744 21.1058 110.487 24.639 110.487 28.6667C110.487 31.0388 109.551 33.2748 107.853 34.9518Z" fill="black"/>
<path d="M200.893 43.8805C197.162 34.0152 187.654 27 176.516 27C165.379 27 155.871 34.007 152.14 43.8723C145.157 45.7098 140 52.0798 140 59.6667C140 68.6908 147.292 76 156.286 76H196.714C205.708 76 213 68.6908 213 59.6667C213 52.0962 207.859 45.7262 200.893 43.8805ZM203.851 66.8288C202.916 67.7715 201.803 68.5189 200.578 69.0277C199.353 69.5366 198.04 69.7968 196.714 69.7933H156.286C153.59 69.7933 151.056 68.7398 149.149 66.8288C148.209 65.8901 147.463 64.7738 146.956 63.5444C146.448 62.3151 146.188 60.9971 146.192 59.6667C146.192 57.38 146.933 55.2322 148.327 53.4355C149.691 51.695 151.58 50.4432 153.712 49.8667L156.8 49.0582L157.932 46.0692C158.633 44.2072 159.611 42.4677 160.841 40.8915C162.055 39.3293 163.494 37.956 165.11 36.8163C168.459 34.4562 172.402 33.2067 176.516 33.2067C180.631 33.2067 184.574 34.4562 187.923 36.8163C189.544 37.9597 190.978 39.3317 192.192 40.8915C193.422 42.4677 194.4 44.2153 195.1 46.0692L196.225 49.05L199.304 49.8667C203.728 51.0508 206.808 55.077 206.808 59.6667C206.808 62.3698 205.757 64.9178 203.851 66.8288Z" fill="black"/>
<path d="M148.064 20.5695C144.077 10.3015 133.918 3 122.017 3C110.117 3 99.958 10.293 95.971 20.561C88.5105 22.4735 83 29.1035 83 37C83 46.3925 90.7913 54 100.402 54H143.598C153.209 54 161 46.3925 161 37C161 29.1205 155.507 22.4905 148.064 20.5695Z" fill="black"/>
<path d="M55.8882 31.5025C52.4634 22.4425 43.7369 16 33.515 16C23.293 16 14.5665 22.435 11.1417 31.495C4.73337 33.1825 0 39.0325 0 46C0 54.2875 6.69252 61 14.9479 61H52.0521C60.3075 61 67 54.2875 67 46C67 39.0475 62.2816 33.1975 55.8882 31.5025Z" fill="black"/>
</svg>
