<svg width="40" height="40" viewBox="0 0 40 40" fill="none" xmlns="http://www.w3.org/2000/svg">
<circle cx="20" cy="20" r="19" fill="#A0FBA9" stroke="black" stroke-width="2"/>
<path d="M9 14.5L13 10.5L17.5 14.5L15.5 17.5L18 21.5L23 24L25.5 22.5L31 27L27 31C13 29.8 9.16667 19.5 9 14.5Z" fill="white"/>
<path d="M26.5786 20.9977C26.4614 20.8803 26.3222 20.7872 26.169 20.7237C26.0158 20.6602 25.8516 20.6275 25.6858 20.6275C25.5199 20.6275 25.3557 20.6602 25.2025 20.7237C25.0493 20.7872 24.9101 20.8803 24.793 20.9977L22.7801 23.0105C21.8469 22.7327 20.1055 22.1013 19.0018 20.9977C17.8981 19.8941 17.2667 18.1527 16.9889 17.2196L19.0018 15.2067C19.1191 15.0896 19.2123 14.9504 19.2758 14.7972C19.3393 14.644 19.372 14.4798 19.372 14.314C19.372 14.1481 19.3393 13.9839 19.2758 13.8307C19.2123 13.6775 19.1191 13.5384 19.0018 13.4212L13.9506 8.37024C13.8334 8.25287 13.6942 8.15976 13.541 8.09623C13.3878 8.0327 13.2236 8 13.0578 8C12.8919 8 12.7277 8.0327 12.5745 8.09623C12.4213 8.15976 12.2822 8.25287 12.165 8.37024L8.74027 11.7948C8.26041 12.2746 7.99017 12.9338 8.00027 13.6068C8.02932 15.405 8.50539 21.6505 13.4278 26.5727C18.3502 31.4949 24.596 31.9697 26.3955 32H26.4308C27.0976 32 27.7277 31.7373 28.205 31.26L31.6297 27.8355C31.7471 27.7183 31.8402 27.5791 31.9038 27.4259C31.9673 27.2728 32 27.1085 32 26.9427C32 26.7769 31.9673 26.6126 31.9038 26.4595C31.8402 26.3063 31.7471 26.1671 31.6297 26.0499L26.5786 20.9977ZM26.4182 29.4732C24.8422 29.4467 19.4501 29.0237 15.2134 24.7859C10.9628 20.5355 10.5511 15.1247 10.5259 13.5803L13.0578 11.0485L16.3234 14.314L14.6906 15.9467C14.5421 16.095 14.433 16.278 14.373 16.479C14.3131 16.6801 14.3042 16.893 14.3471 17.0983C14.3774 17.2436 15.1187 20.6871 17.2149 22.7832C19.3112 24.8794 22.7548 25.6206 22.9 25.6509C23.1053 25.6951 23.3184 25.6869 23.5196 25.6271C23.7209 25.5673 23.9039 25.4578 24.0517 25.3087L25.6858 23.676L28.9514 26.9414L26.4182 29.4732Z" fill="black"/>
</svg>
