<svg width="40" height="40" viewBox="0 0 40 40" fill="none" xmlns="http://www.w3.org/2000/svg">
<circle cx="20" cy="20" r="19" fill="url(#paint0_linear)" stroke="black" stroke-width="2"/>
<path d="M19.9975 14.869C17.1581 14.869 14.8665 17.1606 14.8665 20C14.8665 22.8394 17.1581 25.131 19.9975 25.131C22.8369 25.131 25.1285 22.8394 25.1285 20C25.1285 17.1606 22.8369 14.869 19.9975 14.869ZM19.9975 23.3348C18.1613 23.3348 16.6627 21.8362 16.6627 20C16.6627 18.1638 18.1613 16.6652 19.9975 16.6652C21.8337 16.6652 23.3323 18.1638 23.3323 20C23.3323 21.8362 21.8337 23.3348 19.9975 23.3348ZM25.3386 13.4631C24.6757 13.4631 24.1403 13.9984 24.1403 14.6614C24.1403 15.3243 24.6757 15.8597 25.3386 15.8597C26.0016 15.8597 26.5369 15.3268 26.5369 14.6614C26.5371 14.504 26.5063 14.3481 26.4461 14.2026C26.386 14.0571 26.2977 13.9249 26.1864 13.8136C26.0751 13.7023 25.9429 13.614 25.7974 13.5539C25.6519 13.4937 25.496 13.4629 25.3386 13.4631ZM29.9993 20C29.9993 18.6191 30.0118 17.2506 29.9342 15.8722C29.8567 14.2711 29.4914 12.8502 28.3206 11.6794C27.1473 10.5061 25.7289 10.1433 24.1278 10.0658C22.7469 9.98824 21.3784 10.0007 20 10.0007C18.6191 10.0007 17.2506 9.98824 15.8722 10.0658C14.2711 10.1433 12.8502 10.5086 11.6794 11.6794C10.5061 12.8527 10.1433 14.2711 10.0658 15.8722C9.98824 17.2531 10.0007 18.6216 10.0007 20C10.0007 21.3784 9.98824 22.7494 10.0658 24.1278C10.1433 25.7289 10.5086 27.1498 11.6794 28.3206C12.8527 29.4939 14.2711 29.8567 15.8722 29.9342C17.2531 30.0118 18.6216 29.9993 20 29.9993C21.3809 29.9993 22.7494 30.0118 24.1278 29.9342C25.7289 29.8567 27.1498 29.4914 28.3206 28.3206C29.4939 27.1473 29.8567 25.7289 29.9342 24.1278C30.0143 22.7494 29.9993 21.3809 29.9993 20ZM27.7978 25.899C27.6151 26.3543 27.395 26.6945 27.0423 27.0448C26.6895 27.3975 26.3518 27.6176 25.8965 27.8003C24.5806 28.3231 21.456 28.2055 19.9975 28.2055C18.539 28.2055 15.4119 28.3231 14.096 27.8028C13.6407 27.6201 13.3005 27.4 12.9502 27.0473C12.5975 26.6945 12.3774 26.3568 12.1947 25.9015C11.6744 24.5831 11.792 21.4585 11.792 20C11.792 18.5415 11.6744 15.4144 12.1947 14.0985C12.3774 13.6432 12.5975 13.303 12.9502 12.9527C13.303 12.6025 13.6407 12.3799 14.096 12.1972C15.4119 11.6769 18.539 11.7945 19.9975 11.7945C21.456 11.7945 24.5831 11.6769 25.899 12.1972C26.3543 12.3799 26.6945 12.6 27.0448 12.9527C27.3975 13.3055 27.6176 13.6432 27.8003 14.0985C28.3206 15.4144 28.203 18.5415 28.203 20C28.203 21.4585 28.3206 24.5831 27.7978 25.899Z" fill="black"/>
<defs>
<linearGradient id="paint0_linear" x1="1.68889" y1="0.177777" x2="38.4" y2="36.8889" gradientUnits="userSpaceOnUse">
<stop stop-color="#FFF7B1"/>
<stop offset="0.296875" stop-color="#FED4DB"/>
<stop offset="0.681166" stop-color="#F8FFA6"/>
<stop offset="1" stop-color="#80E7EE"/>
</linearGradient>
</defs>
</svg>
