<svg width="210" height="61" viewBox="0 0 210 61" fill="none" xmlns="http://www.w3.org/2000/svg">
<path d="M1.36664 47.5663V24.126H30.5468V22.7549H1.36664V1.37068H32.3917V0H0V48.937H32.6648V47.5663H1.36705H1.36664ZM58.9751 13.7077L46.8796 29.6775L35.0569 13.7081H33.2801L46.0593 30.7059L32.0496 48.9366H33.6898L46.8788 31.7331L60.1363 48.9366H61.8446L47.7672 30.7051L60.6145 13.7073H58.9747L58.9751 13.7077ZM65.9453 61V39.0678H66.0819C66.9022 42.2662 68.5195 44.8364 70.9341 46.7785C73.3487 48.7202 76.4236 49.6914 80.1593 49.6914C82.5739 49.6914 84.7153 49.2003 86.5832 48.2179C88.451 47.2356 90.0113 45.899 91.2643 44.2083C92.5169 42.5176 93.4738 40.5529 94.1346 38.3138C94.7949 36.0751 95.1255 33.7216 95.1255 31.2547C95.1255 28.6042 94.7834 26.1594 94.1001 23.9208C93.4168 21.6817 92.4258 19.7396 91.1277 18.0949C89.8291 16.4499 88.2574 15.1701 86.4121 14.2569C84.5672 13.3428 82.4828 12.8858 80.1593 12.8858C78.3825 12.8858 76.7312 13.1486 75.205 13.6739C73.6788 14.1997 72.3237 14.9418 71.1391 15.9015C69.9477 16.8686 68.9106 18.0127 68.0638 19.2941C67.1984 20.5965 66.5376 22.0243 66.0819 23.5781H65.9453V13.7077H64.5787V61H65.9453ZM80.1593 48.3886C75.8773 48.3886 72.4373 46.9151 69.8406 43.968C67.2439 41.021 65.9453 36.7826 65.9453 31.2538C65.9453 28.9691 66.2644 26.7987 66.9022 24.7427C67.54 22.6866 68.4625 20.8816 69.6695 19.3282C70.877 17.7745 72.3692 16.5408 74.1456 15.6271C75.9224 14.7131 77.9272 14.256 80.1593 14.256C82.4373 14.256 84.4307 14.7131 86.139 15.6271C87.8473 16.5408 89.2598 17.786 90.3759 19.3624C91.4919 20.9387 92.3348 22.7438 92.9045 24.7768C93.4738 26.8102 93.7584 28.9691 93.7584 31.2538C93.7584 33.3103 93.4968 35.3552 92.9726 37.3882C92.4488 39.4216 91.64 41.2493 90.5465 42.8717C89.4534 44.4934 88.0528 45.8184 86.344 46.8468C84.6353 47.8748 82.5739 48.3886 80.1593 48.3886ZM102.642 48.937V28.9921C102.642 27.0731 102.916 25.1993 103.463 23.372C104.009 21.5443 104.852 19.9333 105.991 18.54C107.13 17.1463 108.576 16.0496 110.33 15.2499C112.084 14.4502 114.169 14.119 116.583 14.256V12.8853C114.487 12.8401 112.654 13.068 111.082 13.5707C109.51 14.0734 108.155 14.7587 107.016 15.6271C105.877 16.4951 104.966 17.5116 104.283 18.677C103.6 19.8406 103.093 21.0994 102.779 22.4123H102.642V13.7077H101.276V48.9374H102.642V48.937ZM118.292 31.5965H147.676C147.768 29.1748 147.529 26.8448 146.959 24.6057C146.39 22.3666 145.478 20.3789 144.226 18.6429C142.973 16.9065 141.355 15.5128 139.374 14.4617C137.392 13.4107 135.034 12.8853 132.301 12.8853C130.342 12.8853 128.428 13.2967 126.56 14.1195C124.692 14.9418 123.052 16.1409 121.64 17.7173C120.228 19.2937 119.089 21.2242 118.223 23.5094C117.358 25.7937 116.925 28.3981 116.925 31.3225C116.925 33.9269 117.221 36.3602 117.813 38.6219C118.406 40.8836 119.316 42.8487 120.547 44.5164C121.777 46.1841 123.36 47.475 125.296 48.3886C127.232 49.3027 129.567 49.7367 132.301 49.691C136.31 49.691 139.681 48.5598 142.414 46.2985C145.148 44.0363 146.765 40.8494 147.267 36.737H145.9C145.308 40.6211 143.793 43.534 141.355 45.4757C138.918 47.4178 135.854 48.3886 132.164 48.3886C129.658 48.3886 127.54 47.9546 125.808 47.0866C124.078 46.2187 122.665 45.0302 121.572 43.5225C120.478 42.0145 119.67 40.2439 119.146 38.2105C118.622 36.1775 118.337 33.9726 118.292 31.5965ZM146.31 30.2258H118.292C118.428 27.7584 118.884 25.5424 119.658 23.5777C120.433 21.6126 121.446 19.9333 122.699 18.54C123.952 17.1463 125.41 16.0842 127.073 15.3527C128.736 14.6217 130.524 14.256 132.437 14.256C134.715 14.256 136.719 14.6789 138.451 15.5243C140.182 16.3696 141.629 17.5235 142.791 18.9855C143.952 20.4476 144.829 22.1498 145.421 24.0915C146.014 26.0335 146.31 28.0785 146.31 30.2258ZM176.037 24.126H177.403C177.403 20.1962 176.264 17.3405 173.987 15.5584C171.708 13.7764 168.61 12.8853 164.693 12.8853C162.506 12.8853 160.661 13.1597 159.157 13.7081C157.654 14.256 156.424 14.9644 155.467 15.8324C154.51 16.7004 153.827 17.6601 153.417 18.7112C153.007 19.7622 152.802 20.7676 152.802 21.7269C152.802 23.646 153.143 25.1767 153.827 26.319C154.51 27.4614 155.581 28.3524 157.039 28.9921C158.041 29.4487 159.18 29.8601 160.456 30.2262C161.731 30.5915 163.212 30.9799 164.898 31.3908C166.401 31.7569 167.881 32.1222 169.34 32.4875C170.797 32.8532 172.084 33.3444 173.2 33.9611C174.317 34.5781 175.228 35.3663 175.934 36.326C176.64 37.2853 176.993 38.5421 176.993 40.0954C176.993 41.6035 176.64 42.8829 175.934 43.9335C175.234 44.9791 174.312 45.8568 173.235 46.5041C172.141 47.1664 170.922 47.6461 169.579 47.9431C168.235 48.2401 166.925 48.3886 165.649 48.3886C161.504 48.3886 158.326 47.4635 156.116 45.6131C153.907 43.7624 152.802 40.8494 152.802 36.874H151.435C151.435 41.3065 152.631 44.5505 155.023 46.607C157.415 48.663 160.957 49.691 165.649 49.691C167.153 49.691 168.667 49.5195 170.194 49.1768C171.72 48.8341 173.087 48.2747 174.294 47.4976C175.491 46.7315 176.496 45.6999 177.232 44.4823C177.984 43.2481 178.36 41.7405 178.36 39.9584C178.36 38.2677 178.03 36.897 177.369 35.846C176.708 34.7953 175.843 33.9269 174.772 33.2416C173.702 32.5562 172.494 32.0194 171.15 31.6311C169.799 31.2404 168.443 30.8633 167.084 30.4998C165.411 30.0596 163.737 29.6256 162.061 29.1978C160.627 28.8321 159.294 28.3981 158.064 27.8954C156.879 27.3927 155.934 26.6732 155.228 25.7365C154.521 24.7999 154.169 23.4633 154.169 21.7269C154.169 21.4073 154.26 20.8359 154.442 20.0136C154.624 19.1908 155.057 18.357 155.74 17.5116C156.424 16.6667 157.471 15.9126 158.884 15.2499C160.296 14.5876 162.232 14.256 164.693 14.256C166.378 14.256 167.916 14.4391 169.305 14.8044C170.695 15.1701 171.891 15.7526 172.893 16.5523C173.895 17.352 174.67 18.3685 175.216 19.6022C175.763 20.8363 176.037 22.344 176.037 24.126ZM207.676 24.126H209.043C209.043 20.1962 207.905 17.3405 205.627 15.5584C203.348 13.7764 200.251 12.8853 196.332 12.8853C194.146 12.8853 192.301 13.1597 190.797 13.7081C189.294 14.256 188.064 14.9644 187.107 15.8324C186.15 16.7004 185.467 17.6601 185.057 18.7112C184.647 19.7622 184.442 20.7676 184.442 21.7269C184.442 23.646 184.784 25.1767 185.467 26.319C186.15 27.4614 187.221 28.3524 188.679 28.9921C189.681 29.4487 190.82 29.8601 192.095 30.2262C193.371 30.5915 194.852 30.9799 196.537 31.3908C198.041 31.7569 199.522 32.1222 200.979 32.4875C202.438 32.8532 203.724 33.3444 204.841 33.9611C205.957 34.5781 206.868 35.3663 207.574 36.326C208.28 37.2853 208.633 38.5421 208.633 40.0954C208.633 41.6035 208.28 42.8829 207.574 43.9335C206.874 44.979 205.952 45.8568 204.875 46.5041C203.781 47.1664 202.563 47.6461 201.219 47.9431C199.875 48.2401 198.565 48.3886 197.289 48.3886C193.143 48.3886 189.966 47.4635 187.756 45.6131C185.546 43.7624 184.442 40.8494 184.442 36.874H183.075C183.075 41.3065 184.271 44.5505 186.663 46.607C189.055 48.663 192.597 49.691 197.289 49.691C198.793 49.691 200.308 49.5195 201.834 49.1768C203.36 48.8341 204.727 48.2747 205.934 47.4976C207.131 46.7315 208.136 45.6999 208.872 44.4823C209.624 43.2481 210 41.7405 210 39.9584C210 38.2677 209.67 36.897 209.009 35.846C208.349 34.7953 207.483 33.9269 206.412 33.2416C205.342 32.5562 204.134 32.0194 202.791 31.6311C201.439 31.2404 200.084 30.8633 198.724 30.4998C197.052 30.0596 195.377 29.6256 193.702 29.1978C192.266 28.8321 190.934 28.3981 189.704 27.8954C188.519 27.3927 187.574 26.6732 186.868 25.7365C186.162 24.7999 185.809 23.4633 185.809 21.7269C185.809 21.4073 185.9 20.8359 186.082 20.0136C186.264 19.1908 186.697 18.357 187.38 17.5116C188.064 16.6667 189.112 15.9126 190.524 15.2499C191.936 14.5876 193.872 14.256 196.333 14.256C198.019 14.256 199.556 14.4391 200.945 14.8044C202.335 15.1701 203.531 15.7526 204.533 16.5523C205.535 17.352 206.31 18.3685 206.857 19.6022C207.403 20.8363 207.677 22.344 207.677 24.126H207.676Z" fill="#222222"/>
</svg>
