<svg width="80" height="80" viewBox="0 0 80 80" fill="none" xmlns="http://www.w3.org/2000/svg">
<circle cx="40" cy="40" r="38.5" fill="#A0FBF0" stroke="black" stroke-width="3"/>
<circle cx="32.5" cy="49.5" r="13.5" fill="white"/>
<path d="M54 28H26C25.4696 28 24.9609 28.2107 24.5858 28.5858C24.2107 28.9609 24 29.4696 24 30V50C24 50.5304 24.2107 51.0391 24.5858 51.4142C24.9609 51.7893 25.4696 52 26 52H54C54.5304 52 55.0391 51.7893 55.4142 51.4142C55.7893 51.0391 56 50.5304 56 50V30C56 29.4696 55.7893 28.9609 55.4142 28.5858C55.0391 28.2107 54.5304 28 54 28ZM52.46 50H27.66L34.66 42.76L33.22 41.37L26 48.84V31.52L38.43 43.89C38.8047 44.2625 39.3116 44.4716 39.84 44.4716C40.3684 44.4716 40.8753 44.2625 41.25 43.89L54 31.21V48.71L46.64 41.35L45.23 42.76L52.46 50ZM27.31 30H52.38L39.84 42.47L27.31 30Z" fill="black"/>
</svg>
