<svg width="210" height="61" viewBox="0 0 210 61" fill="none" xmlns="http://www.w3.org/2000/svg">
<path fill-rule="evenodd" clip-rule="evenodd" d="M195.751 25.0297C195.563 25.0675 195.373 25.4843 195.373 25.7113C195.335 27.2274 195.297 31.2441 195.297 33.9723C195.297 34.0483 195.411 34.1998 195.524 34.1998C196.093 34.2376 197.457 34.2754 198.632 34.2754C200.261 34.2754 201.208 34.0483 201.739 33.8212C203.103 33.1388 203.747 31.6609 203.747 30.0311C203.747 26.356 201.17 24.9537 197.343 24.9537C197.078 24.9159 196.321 24.9159 195.751 25.0297ZM205.528 41.9681C205.528 38.2166 202.762 36.1322 197.76 36.1322C197.533 36.1322 195.941 36.0945 195.562 36.17C195.448 36.2082 195.297 36.2842 195.297 36.3979C195.297 39.0879 195.259 43.3704 195.373 45.0375C195.448 45.7574 195.979 46.7806 196.624 47.0837C197.305 47.4627 198.859 47.5383 199.92 47.5383C202.914 47.5383 205.528 45.8711 205.528 41.9681ZM188.022 22.9458C188.4 22.9458 189.537 23.0591 192.455 23.0591C195.221 23.0591 197.419 22.9835 200.109 22.9835C203.406 22.9835 207.953 24.1579 207.953 29.0842C207.953 31.5094 206.248 33.4422 204.012 34.3895C203.899 34.4273 203.899 34.5029 204.012 34.5407C207.195 35.3369 210 37.3071 210 41.0204C210 44.6585 207.726 46.9699 204.429 48.41C202.421 49.2814 199.92 49.5844 197.381 49.5844C195.448 49.5844 190.257 49.3573 187.377 49.4333C187.074 49.3191 187.643 47.955 187.908 47.728C188.59 47.6898 189.12 47.652 189.84 47.4245C190.864 47.1597 190.977 46.8562 191.129 45.3028C191.204 43.9765 191.205 39.2772 191.205 35.9429C191.205 31.3579 191.243 28.2507 191.205 26.735C191.167 25.5606 190.75 25.1812 189.916 24.9537C189.272 24.8404 188.211 24.6885 187.339 24.5751C187.15 24.3854 187.794 23.0969 188.022 22.9458ZM166.157 46.5154C167.067 47.2348 168.847 47.5378 170.439 47.5378C172.485 47.5378 174.531 47.1597 176.502 45.3779C178.51 43.5597 179.912 40.7555 179.912 36.2842C179.912 32.0017 178.283 28.5155 174.948 26.4698C173.054 25.2945 170.628 24.8026 167.824 24.8026C166.991 24.8026 166.195 24.8404 165.702 25.0675C165.588 25.1434 165.323 25.4843 165.323 25.6736C165.247 26.4316 165.247 32.267 165.247 35.6777C165.247 39.2017 165.247 44.128 165.323 44.6963C165.323 45.265 165.588 46.1364 166.157 46.5154H166.157ZM157.555 22.9453C158.275 22.9453 161.041 23.0591 162.367 23.0591C164.755 23.0591 166.46 22.9458 170.969 22.9458C174.758 22.9458 177.942 23.9686 180.215 25.901C182.981 28.2884 184.422 31.5854 184.422 35.6017C184.422 41.3238 181.807 44.6207 179.192 46.5154C176.578 48.4478 173.167 49.5844 168.317 49.5844C165.74 49.5844 161.307 49.5089 157.631 49.4707H157.593C157.404 49.1298 157.896 47.8035 158.199 47.7657C159.185 47.652 159.45 47.6138 159.943 47.4249C160.738 47.1215 160.89 46.7047 161.004 45.3028C161.117 42.6879 161.079 39.5429 161.079 35.9807C161.079 33.4422 161.117 28.4777 161.041 26.8861C160.928 25.5602 160.359 25.219 159.222 24.9915C158.654 24.8782 157.896 24.7262 156.835 24.6129C156.683 24.3472 157.365 23.1728 157.555 22.9458V22.9453Z" fill="#8E714E"/>
<path fill-rule="evenodd" clip-rule="evenodd" d="M111.704 47.9925C110.757 47.8788 110.075 47.7277 109.241 47.3487C109.128 47.2727 108.938 46.8941 108.938 46.7422C108.862 45.4158 108.862 41.6266 108.862 39.0881C108.862 37.0415 108.521 35.2606 107.65 34.0103C106.626 32.5698 105.149 31.7366 103.254 31.7366C101.587 31.7366 99.351 32.8732 97.4941 34.4648C97.4563 34.5026 97.1533 34.7683 97.191 34.3511C97.191 33.9343 97.267 33.1007 97.3048 32.532C97.343 32.0015 97.0395 31.7366 97.0395 31.7366C95.8269 32.3427 92.4167 33.1385 91.1659 33.2518C90.2568 33.4419 90.0293 34.3133 90.977 34.6163H91.0148C92.0373 34.9194 92.7197 35.2606 93.2498 35.6018C93.6288 35.9049 93.5911 36.3217 93.5911 36.6629C93.6288 39.5045 93.6289 43.8624 93.5155 46.2498C93.4777 47.1972 93.2125 47.538 92.53 47.6895L92.606 47.6517C92.0754 47.7655 91.6587 47.8788 91.0144 47.9548C90.7869 48.1822 90.7869 49.3948 91.0144 49.6601C91.4312 49.6601 93.6289 49.5464 95.4483 49.5464C97.9491 49.5464 99.2376 49.6601 99.8815 49.6601C100.147 49.3571 100.223 48.22 100.071 47.9548C99.351 47.917 98.8204 47.8414 98.3281 47.6895C97.646 47.5376 97.4563 47.1972 97.4181 46.4014C97.343 44.3926 97.343 40.1487 97.343 37.269C97.343 36.4732 97.5701 36.0942 97.7971 35.8667C98.6689 35.1091 100.071 34.5786 101.322 34.5786C102.534 34.5786 103.33 34.9576 103.936 35.4503C104.77 36.132 105.035 37.1175 105.149 37.8373C105.338 39.4667 105.262 42.6876 105.262 45.4918C105.262 47.0074 105.149 47.3865 104.581 47.5758C104.315 47.6895 103.633 47.8414 102.837 47.9166C102.572 48.1822 102.648 49.3571 102.837 49.6223C103.936 49.6223 105.225 49.5086 107.119 49.5086C109.468 49.5086 110.984 49.6223 111.591 49.6223C111.78 49.3948 111.856 48.296 111.704 47.9925ZM122.201 33.5179C120.193 33.5179 118.942 35.0713 118.942 37.4961C118.942 39.9594 120.041 42.8014 123.148 42.8014C123.679 42.8014 124.664 42.5739 125.118 42.0434C125.839 41.3617 126.331 39.9972 126.331 38.5571C126.331 35.4121 124.777 33.5175 122.201 33.5175V33.5179ZM121.935 50.2662C121.178 50.2662 120.647 50.4937 120.306 50.6834C118.715 51.7058 117.995 52.6914 117.995 53.8666C117.995 54.965 118.411 55.8364 119.321 56.5944C120.42 57.5417 121.935 57.9967 123.868 57.9967C127.733 57.9967 129.438 55.9123 129.438 53.8666C129.438 52.4261 128.718 51.4788 127.241 50.9487C126.18 50.4937 124.247 50.2662 121.935 50.2662ZM122.201 60.1188C119.889 60.1188 118.222 59.626 116.782 58.5272C115.38 57.4661 114.774 55.8745 114.774 54.7757C114.774 54.4727 114.85 53.6387 115.532 52.8811C115.948 52.4261 116.858 51.5547 119.018 50.0769C119.094 50.0391 119.131 50.0013 119.131 49.925C119.131 49.8494 119.055 49.7734 118.98 49.7361C117.199 49.054 116.668 47.9548 116.516 47.3487V47.2727C116.479 47.0452 116.403 46.8181 116.744 46.5907C117.01 46.4014 117.389 46.1739 117.805 45.909C118.449 45.5296 119.131 45.1128 119.548 44.7716C119.624 44.696 119.624 44.6205 119.624 44.5445C119.624 44.4685 119.548 44.3926 119.472 44.3552C116.82 43.4834 115.494 41.5128 115.494 38.5571C115.494 36.6247 116.365 34.8816 117.919 33.7828C118.98 32.9492 121.632 31.9259 123.376 31.9259H123.489C125.27 31.9637 126.255 32.3427 127.657 32.8354C128.415 33.1007 129.135 33.214 130.121 33.214C131.598 33.214 132.243 32.7595 132.773 32.2294C132.811 32.3049 132.887 32.4946 132.925 32.987C132.962 33.4797 132.811 34.1995 132.432 34.7301C132.129 35.1469 131.447 35.4503 130.765 35.4503H130.575C129.893 35.3744 129.59 35.2984 129.59 35.2984L129.438 35.3744C129.401 35.4503 129.438 35.5259 129.476 35.6396L129.514 35.7156C129.59 36.0564 129.742 37.0793 129.742 37.345C129.742 40.4522 128.491 41.8159 127.165 42.8392C125.876 43.7865 124.399 44.3926 122.731 44.5445C122.693 44.5445 122.542 44.5445 122.201 44.5823C122.011 44.5823 121.746 44.6205 121.708 44.6205H121.67C121.367 44.696 120.61 45.075 120.61 45.7189C120.61 46.2872 120.95 46.9697 122.58 47.0834C122.921 47.1212 123.261 47.1212 123.641 47.1594C125.801 47.3105 128.491 47.5002 129.742 47.917C131.485 48.5608 132.583 50.1147 132.583 51.9715C132.583 54.7761 130.575 57.3906 127.241 59.0195C125.611 59.7398 123.982 60.1188 122.201 60.1188ZM143.8 33.7072C143.004 33.7072 142.284 33.8961 141.754 34.2751C140.276 35.1846 139.518 37.0037 139.518 39.656C139.518 44.6205 142.019 48.1067 145.581 48.1067C146.642 48.1067 147.476 47.8032 148.196 47.1972C149.294 46.2872 149.863 44.4685 149.863 41.9296C149.863 37.0037 147.4 33.7068 143.8 33.7068L143.8 33.7072ZM144.482 49.9254C138.04 49.9254 135.729 45.1888 135.729 40.7552C135.729 37.648 136.979 35.2606 139.48 33.5553C141.261 32.4564 143.383 31.8503 145.278 31.8503C150.204 31.8503 153.652 35.3744 153.652 40.4522C153.652 43.9002 152.288 46.6284 149.673 48.296C148.423 49.1296 146.263 49.9254 144.482 49.9254H144.482ZM76.9561 33.7068C76.1603 33.7068 75.4405 33.8961 74.9096 34.2751C73.4321 35.1846 72.6741 37.0037 72.6741 39.656C72.6741 44.6205 75.1748 48.1067 78.737 48.1067C79.7981 48.1067 80.6317 47.8032 81.3519 47.1972C82.4503 46.2872 83.019 44.4685 83.019 41.9296C83.019 37.0037 80.5939 33.7068 76.9561 33.7068ZM77.6382 49.9254C71.1963 49.9254 68.8848 45.1888 68.8848 40.7552C68.8848 37.648 70.1352 35.2606 72.6359 33.5553C74.4172 32.4564 76.5393 31.8503 78.434 31.8503C83.3603 31.8503 86.8083 35.3744 86.8083 40.4522C86.8083 43.9002 85.4442 46.6284 82.8293 48.296C81.6168 49.1296 79.4568 49.9254 77.6382 49.9254ZM34.326 49.5464C34.25 49.433 34.174 49.0918 34.2122 48.675C34.2122 48.3715 34.2882 48.1823 34.326 48.1067C35.1218 47.9925 35.5386 47.8788 35.9931 47.7655C36.7511 47.5758 37.0542 47.1594 37.092 46.2121C37.2061 43.9384 37.2061 39.6182 37.1679 36.6247V36.5488C37.1679 36.2079 37.1679 35.7907 36.7511 35.4877C36.1446 35.1091 35.4248 34.7683 34.4775 34.5022C34.1367 34.3893 33.9092 34.1995 33.947 33.9725C33.947 33.745 34.1745 33.4797 34.6672 33.4038C35.9176 33.29 39.1759 32.4946 40.4644 31.9259C40.5404 32.0015 40.6542 32.2294 40.6542 32.5324L40.6164 32.9488C40.5782 33.366 40.5404 33.8587 40.5404 34.3511C40.5404 34.5026 40.6923 34.6163 40.8435 34.6163C40.9194 34.6163 40.9954 34.5786 41.0709 34.5404C43.4961 32.6457 45.6938 31.9637 46.8304 31.9637C48.6877 31.9637 50.1278 32.8354 51.2266 34.6541C51.3021 34.7683 51.3781 34.806 51.4919 34.806C51.5674 34.806 51.6807 34.7683 51.7189 34.6923C53.9548 32.987 56.1907 31.9637 57.6681 31.9637C61.1921 31.9637 63.2765 34.5786 63.2765 39.0121C63.2765 40.2625 63.2765 41.8918 63.2387 43.3701C63.2387 44.696 63.2009 45.9086 63.2009 46.7804C63.2009 46.9693 63.4658 47.5758 63.8826 47.6895C64.4131 47.9548 65.1333 48.0685 66.0806 48.22H66.1184C66.1944 48.4853 66.0429 49.4704 65.8913 49.6601C65.6639 49.6601 65.3226 49.6601 64.944 49.6223C63.9848 49.5723 63.0244 49.5469 62.0639 49.5464C59.7147 49.5464 58.5021 49.5841 57.3269 49.6601C57.2517 49.3571 57.2135 48.4475 57.3269 48.22C58.0093 48.1067 58.3502 47.9925 58.7674 47.8792C59.5254 47.6517 59.7147 47.3105 59.7529 46.3254C59.7529 45.6056 59.904 39.4667 59.6765 37.9888C59.4494 36.4732 58.3124 34.6923 55.8113 34.6923C54.8639 34.6923 53.3865 35.0713 51.9464 36.1697C51.8709 36.2457 51.7945 36.435 51.7945 36.5488V36.5869C51.9464 37.3823 51.9464 38.2923 51.9464 39.6942V42.1571C51.9464 43.8624 51.9082 45.454 51.9464 46.6662C51.9464 47.5002 52.4392 47.6895 52.856 47.8414C53.0835 47.8788 53.2346 47.917 53.4243 47.9548C53.7651 48.0307 54.1063 48.1067 54.6369 48.22C54.7128 48.372 54.7128 48.8643 54.5991 49.2811C54.5609 49.5086 54.4849 49.6219 54.4471 49.6601C53.159 49.6223 51.8327 49.5841 49.9003 49.5841C49.332 49.5841 48.3464 49.6223 47.5129 49.6223C46.8304 49.6223 46.1865 49.6601 45.8079 49.6601C45.7698 49.5841 45.6938 49.3193 45.6938 48.9021C45.6938 48.5613 45.7698 48.296 45.8457 48.22C46.035 48.1823 46.1865 48.1445 46.3763 48.1445C46.8304 48.0685 47.2098 47.9925 47.5884 47.917C48.2331 47.7277 48.4602 47.3865 48.498 46.5529C48.6117 44.6582 48.7255 39.2396 48.4602 37.8751C48.0056 35.6774 46.7553 34.5786 44.7465 34.5786C43.5721 34.5786 42.0938 35.1469 40.8816 36.0568C40.6919 36.2079 40.5404 36.5865 40.5404 36.9278V39.1636C40.5404 41.8918 40.5404 45.3025 40.5782 46.7804C40.6164 47.2345 40.7675 47.7655 41.6393 47.9548C41.829 47.9925 42.132 48.0685 42.511 48.1067L43.1927 48.22C43.269 48.4475 43.2308 49.3571 43.0793 49.6601C42.7003 49.6601 42.2458 49.6223 41.7148 49.6223C40.9194 49.5841 39.8961 49.5464 38.7595 49.5464C37.4332 49.5464 36.4859 49.5841 35.7279 49.6223C35.1973 49.5464 34.7805 49.5464 34.326 49.5464Z" fill="#442D22"/>
<path fill-rule="evenodd" clip-rule="evenodd" d="M14.3938 58.641L12.8404 58.11C12.8404 58.11 13.0301 50.1907 10.1878 49.6224C8.29356 47.4243 10.4916 -43.5955 17.3122 49.3189C17.3122 49.3189 14.9626 50.4933 14.5458 52.5021C14.0908 54.4727 14.3938 58.641 14.3938 58.641Z" fill="white"/>
<path fill-rule="evenodd" clip-rule="evenodd" d="M14.3938 58.641L12.8404 58.11C12.8404 58.11 13.0301 50.1907 10.1878 49.6224C8.29356 47.4243 10.4916 -43.5955 17.3122 49.3189C17.3122 49.3189 14.9626 50.4933 14.5458 52.5021C14.0908 54.4727 14.3938 58.641 14.3938 58.641Z" fill="#A6A385"/>
<path fill-rule="evenodd" clip-rule="evenodd" d="M15.2277 50.9866C15.2277 50.9866 28.8318 42.0435 25.6482 23.4376C22.5792 9.91026 15.3415 5.47671 14.5457 3.77137C13.6743 2.55879 12.8403 0.437073 12.8403 0.437073L13.4091 38.0645C13.4091 38.1027 12.2342 49.5843 15.2281 50.987" fill="white"/>
<path fill-rule="evenodd" clip-rule="evenodd" d="M15.2277 50.9866C15.2277 50.9866 28.8318 42.0435 25.6482 23.4376C22.5792 9.91026 15.3415 5.47671 14.5457 3.77137C13.6743 2.55879 12.8403 0.437073 12.8403 0.437073L13.4091 38.0645C13.4091 38.1027 12.2342 49.5843 15.2281 50.987" fill="#499D4A"/>
<path fill-rule="evenodd" clip-rule="evenodd" d="M12.045 51.4787C12.045 51.4787 -0.725561 42.7631 0.0324577 27.4167C0.752288 12.0699 9.77091 4.52916 11.514 3.16506C12.6511 1.95247 12.6888 1.4975 12.7648 0.284912C13.5606 1.99025 13.4091 25.7874 13.5224 28.5911C13.8632 39.3906 12.9163 49.4329 12.045 51.4787Z" fill="white"/>
<path fill-rule="evenodd" clip-rule="evenodd" d="M12.045 51.4787C12.045 51.4787 -0.725561 42.7631 0.0324577 27.4167C0.752288 12.0699 9.77091 4.52916 11.514 3.16506C12.6511 1.95247 12.6888 1.4975 12.7648 0.284912C13.5606 1.99025 13.4091 25.7874 13.5224 28.5911C13.8632 39.3906 12.9163 49.4329 12.045 51.4787Z" fill="#58AA50"/>
</svg>
