<svg width="164" height="100" viewBox="0 0 164 100" fill="none" xmlns="http://www.w3.org/2000/svg">
<path d="M80.7676 99.9999C80.2141 99.9999 79.6973 99.8523 79.2173 99.5939L74.3079 96.6779C73.5695 96.2716 73.9387 96.1241 74.1603 96.0503C75.1568 95.7181 75.3414 95.644 76.375 95.0538C76.4858 94.9797 76.6337 95.0167 76.7442 95.0905L80.5095 97.3422C80.6571 97.416 80.8417 97.416 80.9522 97.3422L95.681 88.8151C95.8286 88.7413 95.9026 88.5934 95.9026 88.4091V71.3919C95.9026 71.207 95.8286 71.0597 95.681 70.9857L80.9522 62.4956C80.8047 62.4215 80.62 62.4215 80.5095 62.4956L65.7808 70.9857C65.6332 71.0594 65.5591 71.244 65.5591 71.3916V88.4088C65.5591 88.5567 65.6332 88.741 65.7808 88.8151L69.8045 91.1406C71.9824 92.2479 73.3481 90.956 73.3481 89.664V72.8681C73.3481 72.6468 73.5327 72.4252 73.7911 72.4252H75.6736C75.8953 72.4252 76.1166 72.6098 76.1166 72.8681V89.664C76.1166 92.5801 74.5292 94.2783 71.7607 94.2783C70.9118 94.2783 70.2475 94.2783 68.3646 93.3553L64.4888 91.1406C63.529 90.5871 62.9385 89.5532 62.9385 88.4459V71.4286C62.9385 70.3213 63.529 69.2874 64.4888 68.7339L79.2173 60.2068C80.1403 59.69 81.3955 59.69 82.3182 60.2068L97.0467 68.7339C98.0065 69.2874 98.5974 70.3213 98.5974 71.4286V88.4459C98.5974 89.5532 98.0065 90.5871 97.0467 91.1406L82.3182 99.6677C81.8382 99.8894 81.2847 99.9999 80.7679 99.9999H80.7676ZM85.3081 88.2983C78.8484 88.2983 77.5194 85.3452 77.5194 82.8351C77.5194 82.6134 77.704 82.3921 77.9624 82.3921H79.8819C80.1033 82.3921 80.2879 82.5397 80.2879 82.7613C80.5833 84.7176 81.4323 85.6774 85.3451 85.6774C88.4458 85.6774 89.7751 84.976 89.7751 83.3148C89.7751 82.3551 89.4056 81.654 84.57 81.1739C80.5463 80.7677 78.0362 79.882 78.0362 76.6705C78.0362 73.6804 80.5466 71.9084 84.7546 71.9084C89.4793 71.9084 91.8052 73.5328 92.1006 77.0761C92.1006 77.1873 92.0636 77.2978 91.9898 77.4086C91.9157 77.4824 91.8052 77.5562 91.6943 77.5562H89.7748C89.5902 77.5562 89.4056 77.4086 89.3688 77.224C88.9258 75.194 87.7815 74.5293 84.7546 74.5293C81.3585 74.5293 80.9522 75.7107 80.9522 76.5964C80.9522 77.667 81.4323 77.9992 86.0095 78.5897C90.55 79.1806 92.6912 80.0296 92.6912 83.204C92.6541 86.4525 89.9964 88.2983 85.3081 88.2983Z" fill="#539E43"/>
<path d="M35.0683 33.444C35.0683 32.7797 34.6991 32.1518 34.1086 31.8196L18.4571 22.8128C18.1983 22.6649 17.9032 22.5911 17.6081 22.554H17.4602C17.1651 22.554 16.8697 22.6649 16.6113 22.8128L0.959774 31.8196C0.368898 32.1518 0 32.7794 0 33.444L0.0370495 57.6594C0.0370495 57.9916 0.221658 58.3238 0.516777 58.4716C0.812215 58.6562 1.18111 58.6562 1.43982 58.4716L10.7421 53.156C11.3327 52.8238 11.7019 52.1962 11.7019 51.5319V40.1992C11.7019 39.5349 12.0708 38.9073 12.6617 38.5751L16.6113 36.2863C16.9067 36.1017 17.2389 36.0276 17.5711 36.0276C17.9032 36.0276 18.2354 36.1017 18.4941 36.2863L22.4437 38.5751C23.0346 38.9073 23.4035 39.5345 23.4035 40.1992V51.5319C23.4035 52.1962 23.7727 52.8238 24.3633 53.156L33.6656 58.4716C33.961 58.6562 34.3299 58.6562 34.6253 58.4716C34.9208 58.3238 35.1054 57.9916 35.1054 57.6594L35.0683 33.444Z" fill="#333333"/>
<path d="M110.299 0.110909C110.004 -0.0369697 109.634 -0.0369697 109.376 0.110909C109.081 0.295518 108.896 0.590636 108.896 0.922804V24.9172C108.896 25.1385 108.785 25.3598 108.564 25.5077C108.342 25.6182 108.121 25.6182 107.899 25.5077L103.987 23.256C103.7 23.0927 103.375 23.0068 103.045 23.0068C102.715 23.0068 102.391 23.0927 102.104 23.256L86.4522 32.2999C85.8617 32.6321 85.4924 33.2597 85.4924 33.924V51.9748C85.4924 52.6391 85.8617 53.2671 86.4522 53.5992L102.104 62.6431C102.391 62.8065 102.715 62.8924 103.045 62.8924C103.375 62.8924 103.7 62.8065 103.987 62.6431L119.638 53.5992C120.229 53.2671 120.598 52.6395 120.598 51.9748V6.97689C120.598 6.2755 120.229 5.64821 119.638 5.31573L110.299 0.110909H110.299ZM108.859 46.0319C108.859 46.2165 108.785 46.364 108.638 46.4378L103.285 49.5385C103.21 49.5749 103.128 49.5939 103.045 49.5939C102.962 49.5939 102.88 49.5749 102.805 49.5385L97.4527 46.4378C97.3048 46.364 97.2311 46.1794 97.2311 46.0319V39.8302C97.2311 39.6456 97.3048 39.4981 97.4527 39.4243L102.805 36.3233C102.88 36.2868 102.962 36.2679 103.045 36.2679C103.128 36.2679 103.21 36.2868 103.285 36.3233L108.638 39.4243C108.785 39.4977 108.859 39.6827 108.859 39.8302V46.0319Z" fill="#333333"/>
<path d="M162.385 39.6828C162.976 39.3506 163.308 38.723 163.308 38.0583V33.6657C163.308 33.0014 162.939 32.3738 162.385 32.0416L146.844 23.0347C146.558 22.8715 146.233 22.7856 145.903 22.7856C145.573 22.7856 145.249 22.8715 144.962 23.0347L129.31 32.0783C128.719 32.4105 128.351 33.0381 128.351 33.7028V51.7536C128.351 52.4179 128.719 53.0455 129.31 53.3777L144.851 62.237C145.442 62.5691 146.143 62.5691 146.697 62.237L156.11 56.9957C156.405 56.8479 156.59 56.5157 156.59 56.1835C156.59 55.8514 156.405 55.5192 156.11 55.3713L140.384 46.3274C140.089 46.1431 139.905 45.8477 139.905 45.5155V39.8677C139.905 39.5355 140.089 39.2034 140.384 39.0555L145.294 36.2499C145.438 36.1595 145.604 36.1115 145.774 36.1115C145.944 36.1115 146.11 36.1595 146.254 36.2499L151.163 39.0555C151.459 39.2401 151.643 39.5352 151.643 39.8677V44.2973C151.643 44.6295 151.828 44.9617 152.123 45.1092C152.418 45.2938 152.787 45.2938 153.083 45.1092L162.385 39.6828Z" fill="#333333"/>
<path d="M145.663 38.8339C145.718 38.7978 145.782 38.7786 145.847 38.7786C145.913 38.7786 145.977 38.7978 146.032 38.8339L149.022 40.5688C149.133 40.6423 149.206 40.7531 149.206 40.901V44.3709C149.206 44.5184 149.133 44.6293 149.022 44.703L146.032 46.438C145.977 46.474 145.913 46.4932 145.847 46.4932C145.782 46.4932 145.718 46.474 145.663 46.438L142.673 44.703C142.562 44.6293 142.488 44.5184 142.488 44.3709V40.901C142.488 40.7531 142.562 40.6423 142.673 40.5688L145.663 38.8339Z" fill="#539E43"/>
<mask id="mask0" mask-type="alpha" maskUnits="userSpaceOnUse" x="42" y="22" width="36" height="41">
<path d="M61.24 23.1085C60.9532 22.9452 60.6288 22.8594 60.2988 22.8594C59.9687 22.8594 59.6443 22.9452 59.3575 23.1085L43.8168 32.078C43.226 32.4102 42.8938 33.0378 42.8938 33.7021V51.6794C42.8938 52.3438 43.263 52.9714 43.8168 53.3036L59.3575 62.2737C59.6443 62.437 59.9687 62.5228 60.2988 62.5228C60.6288 62.5228 60.9532 62.437 61.24 62.2737L76.781 53.3036C77.3716 52.9714 77.7041 52.3438 77.7041 51.6794V33.7024C77.7041 33.0381 77.3345 32.4105 76.781 32.0783L61.24 23.1085Z" fill="white"/>
</mask>
<g mask="url(#mask0)">
<path d="M61.24 23.1085C60.9532 22.9452 60.6288 22.8594 60.2988 22.8594C59.9687 22.8594 59.6443 22.9452 59.3575 23.1085L43.8168 32.078C43.226 32.4102 42.8938 33.0378 42.8938 33.7021V51.6794C42.8938 52.3438 43.263 52.9714 43.8168 53.3036L59.3575 62.2737C59.6443 62.437 59.9687 62.5228 60.2988 62.5228C60.6288 62.5228 60.9532 62.437 61.24 62.2737L76.781 53.3036C77.3716 52.9714 77.7041 52.3438 77.7041 51.6794V33.7024C77.7041 33.0381 77.3345 32.4105 76.781 32.0783L61.24 23.1085Z" fill="url(#paint0_linear)"/>
<path d="M76.8178 32.078L61.2034 23.1082C61.05 23.0307 60.8891 22.9689 60.7233 22.9236L43.2261 52.8979C43.371 53.0749 43.5461 53.2248 43.7432 53.3409L59.3576 62.3111C59.8006 62.5694 60.3174 62.6432 60.7971 62.4953L77.2241 32.4475C77.1133 32.3 76.9654 32.1888 76.8178 32.0783V32.078Z" fill="url(#paint1_linear)"/>
<path fill-rule="evenodd" clip-rule="evenodd" d="M76.8549 53.3034C77.2979 53.045 77.6301 52.602 77.778 52.1223L60.6493 22.8864C60.2063 22.8126 59.7262 22.8493 59.3206 23.1077L43.8167 32.0411L60.5384 62.5319C60.7816 62.4921 61.0178 62.4176 61.2398 62.3106L76.8546 53.3037L76.8549 53.3034Z" fill="url(#paint2_linear)"/>
<path fill-rule="evenodd" clip-rule="evenodd" d="M76.8548 53.3036L61.2771 62.2737C61.0572 62.3859 60.8201 62.4607 60.5757 62.4951L60.8711 63.0489L78.1467 53.0455V52.8239L77.7037 52.0854C77.63 52.6022 77.2978 53.0452 76.8548 53.3036Z" fill="url(#paint3_linear)"/>
<path fill-rule="evenodd" clip-rule="evenodd" d="M76.8548 53.3036L61.2771 62.2737C61.0572 62.3859 60.8201 62.4607 60.5757 62.4951L60.8711 63.0489L78.1467 53.0455V52.8239L77.7037 52.0854C77.63 52.6022 77.2978 53.0452 76.8548 53.3036Z" fill="url(#paint4_linear)"/>
</g>
<defs>
<linearGradient id="paint0_linear" x1="66.6302" y1="29.7953" x2="49.5961" y2="56.5609" gradientUnits="userSpaceOnUse">
<stop stop-color="#41873F"/>
<stop offset="0.3288" stop-color="#418B3D"/>
<stop offset="0.6352" stop-color="#419637"/>
<stop offset="0.9319" stop-color="#3FA92D"/>
<stop offset="1" stop-color="#3FAE2A"/>
</linearGradient>
<linearGradient id="paint1_linear" x1="57.9394" y1="44.7965" x2="100.6" y2="21.6186" gradientUnits="userSpaceOnUse">
<stop offset="0.1376" stop-color="#41873F"/>
<stop offset="0.4032" stop-color="#54A044"/>
<stop offset="0.7136" stop-color="#66B848"/>
<stop offset="0.9081" stop-color="#6CC04A"/>
</linearGradient>
<linearGradient id="paint2_linear" x1="42.3261" y1="42.6912" x2="78.287" y2="42.6912" gradientUnits="userSpaceOnUse">
<stop offset="0.09192" stop-color="#6CC04A"/>
<stop offset="0.2864" stop-color="#66B848"/>
<stop offset="0.5968" stop-color="#54A044"/>
<stop offset="0.8624" stop-color="#41873F"/>
</linearGradient>
<linearGradient id="paint3_linear" x1="42.3262" y1="57.5973" x2="78.2868" y2="57.5973" gradientUnits="userSpaceOnUse">
<stop offset="0.09192" stop-color="#6CC04A"/>
<stop offset="0.2864" stop-color="#66B848"/>
<stop offset="0.5968" stop-color="#54A044"/>
<stop offset="0.8624" stop-color="#41873F"/>
</linearGradient>
<linearGradient id="paint4_linear" x1="83.5258" y1="28.945" x2="74.4156" y2="76.6822" gradientUnits="userSpaceOnUse">
<stop stop-color="#41873F"/>
<stop offset="0.3288" stop-color="#418B3D"/>
<stop offset="0.6352" stop-color="#419637"/>
<stop offset="0.9319" stop-color="#3FA92D"/>
<stop offset="1" stop-color="#3FAE2A"/>
</linearGradient>
</defs>
</svg>
