<svg width="80" height="80" viewBox="0 0 80 80" fill="none" xmlns="http://www.w3.org/2000/svg">
<circle cx="40" cy="40" r="38.5" fill="#A0C4FB" stroke="black" stroke-width="3"/>
<circle cx="47.5" cy="54.5" r="13.5" fill="white"/>
<path d="M46.5786 40.9977C46.4614 40.8803 46.3222 40.7872 46.169 40.7237C46.0158 40.6602 45.8516 40.6275 45.6858 40.6275C45.5199 40.6275 45.3557 40.6602 45.2025 40.7237C45.0493 40.7872 44.9101 40.8803 44.793 40.9977L42.7801 43.0105C41.8469 42.7327 40.1055 42.1013 39.0018 40.9977C37.8981 39.8941 37.2667 38.1527 36.9889 37.2196L39.0018 35.2067C39.1191 35.0896 39.2123 34.9504 39.2758 34.7972C39.3393 34.644 39.372 34.4798 39.372 34.314C39.372 34.1481 39.3393 33.9839 39.2758 33.8307C39.2123 33.6775 39.1191 33.5384 39.0018 33.4212L33.9506 28.3702C33.8334 28.2529 33.6942 28.1598 33.541 28.0962C33.3878 28.0327 33.2236 28 33.0578 28C32.8919 28 32.7277 28.0327 32.5745 28.0962C32.4213 28.1598 32.2822 28.2529 32.165 28.3702L28.7403 31.7948C28.2604 32.2746 27.9902 32.9338 28.0003 33.6068C28.0293 35.405 28.5054 41.6505 33.4278 46.5727C38.3502 51.4949 44.596 51.9697 46.3955 52H46.4308C47.0976 52 47.7277 51.7373 48.205 51.26L51.6297 47.8355C51.7471 47.7183 51.8402 47.5791 51.9038 47.4259C51.9673 47.2728 52 47.1085 52 46.9427C52 46.7769 51.9673 46.6126 51.9038 46.4595C51.8402 46.3063 51.7471 46.1671 51.6297 46.0499L46.5786 40.9977ZM46.4182 49.4732C44.8422 49.4467 39.4501 49.0237 35.2134 44.7859C30.9628 40.5355 30.5511 35.1247 30.5259 33.5803L33.0578 31.0485L36.3234 34.314L34.6906 35.9467C34.5421 36.095 34.433 36.278 34.373 36.479C34.3131 36.6801 34.3042 36.893 34.3471 37.0983C34.3774 37.2436 35.1187 40.6871 37.2149 42.7832C39.3112 44.8794 42.7548 45.6206 42.9 45.6509C43.1053 45.6951 43.3184 45.6869 43.5196 45.6271C43.7209 45.5673 43.9039 45.4578 44.0517 45.3087L45.6858 43.676L48.9514 46.9414L46.4182 49.4732Z" fill="black"/>
</svg>
