<svg width="100" height="100" viewBox="0 0 100 100" fill="none" xmlns="http://www.w3.org/2000/svg">
<path d="M0 50V100H100V0H0V50Z" fill="#007ACC"/>
<path d="M22.1137 50.332L22.082 54.4269H35.0977V91.4113H44.3047V54.4269H57.3203V50.4113C57.3203 48.1887 57.2727 46.3316 57.2094 46.284C57.1617 46.2207 49.241 46.1887 39.6379 46.2047L22.1617 46.2523L22.1141 50.3316L22.1137 50.332Z" fill="white"/>
<path d="M80.6902 46.1359C83.2297 46.7711 85.1664 47.8976 86.9441 49.7391C87.8648 50.7234 89.2297 52.5172 89.341 52.9457C89.3722 53.0726 85.0234 55.9934 82.3886 57.6281C82.2933 57.6918 81.9121 57.2789 81.4836 56.6437C80.198 54.7711 78.8488 53.9613 76.7851 53.8187C73.7539 53.6121 71.8011 55.1996 71.8172 57.85C71.8172 58.6281 71.9281 59.0883 72.2457 59.7234C72.9125 61.1043 74.1504 61.9297 78.0394 63.6121C85.198 66.6918 88.2613 68.7234 90.1664 71.6121C92.2933 74.8348 92.7695 79.9773 91.325 83.8027C89.7379 87.9613 85.8015 90.7871 80.2613 91.7234C78.5472 92.025 74.484 91.9773 72.6425 91.6441C68.6269 90.9297 64.8172 88.9457 62.4679 86.3426C61.5472 85.3266 59.7535 82.6758 59.8648 82.4851C59.9125 82.4219 60.325 82.168 60.7851 81.898C61.2297 81.6441 62.9125 80.6754 64.4996 79.7551L67.3726 78.0883L67.9758 78.9773C68.8172 80.2629 70.6582 82.025 71.7695 82.6121C74.9597 84.2949 79.341 84.0566 81.4996 82.1199C82.4203 81.2789 82.8011 80.4058 82.8011 79.1199C82.8011 77.9613 82.6582 77.4535 82.0551 76.5809C81.2777 75.4695 79.6902 74.5328 75.182 72.5809C70.0234 70.3582 67.8011 68.9773 65.7695 66.7867C64.5949 65.5172 63.4836 63.4851 63.0234 61.7867C62.6425 60.3742 62.5468 56.8344 62.8488 55.4059C63.9125 50.4215 67.6742 46.9457 73.1027 45.9137C74.8644 45.5805 78.9597 45.7074 80.6902 46.1363V46.1359Z" fill="white"/>
</svg>
